<svg id="Capa_1" data-name="Capa 1" xmlns="http://www.w3.org/2000/svg" viewBox="0 0 27.53 42.66"><defs><style>.cls-1{fill:#d48130;}.cls-2{fill:#351f3d;}.cls-3{fill:#fff;}</style></defs><title>Favicon</title><path class="cls-1" d="M24.27,46.32A17.15,17.15,0,0,0,32.61,44l-2.85-5.61a8.82,8.82,0,0,1-5.49,1.89l-.45,0a16.67,16.67,0,0,1-5.26-1.47l-2.9,5.7a17.26,17.26,0,0,0,8.16,1.76" transform="translate(-10.21 -3.67)"/><path class="cls-2" d="M10.21,18.25c0,7.82,5.43,12.59,13.71,12.59,4.67,0,7.1,1.93,7.11,4.92h6.45c0-2.44-.87-6.19-6.19-8.12,4.11-1.88,6.19-4.93,6.19-9.39a10.85,10.85,0,0,0-2.89-7.47l3.15-3.66L33.17,3.67l-2.8,3.45a12.48,12.48,0,0,0-6.45-1.57c-7,0-13.71,4.26-13.71,12.7" transform="translate(-10.21 -3.67)"/><path class="cls-3" d="M23.92,25.15c-4.06,0-7.51-2.54-7.51-6.9,0-4.68,3.45-7,7.51-7s7.37,2.69,7.37,7S28,25.15,23.92,25.15Z" transform="translate(-10.21 -3.67)"/></svg>