<?xml version="1.0" encoding="utf-8"?>
<!-- Generator: Adobe Illustrator 23.0.6, SVG Export Plug-In . SVG Version: 6.00 Build 0)  -->
<svg version="1.1" id="Capa_1" xmlns="http://www.w3.org/2000/svg" xmlns:xlink="http://www.w3.org/1999/xlink" x="0px" y="0px"
	 viewBox="0 0 50 50" style="enable-background:new 0 0 50 50;" xml:space="preserve">
<style type="text/css">
	.st0{fill:#D48130;}
	.st1{fill:#050006;}
	.st2{fill:#FFFFFF;}
</style>
<path class="st0" d="M24.27,46.32c2.98-0.07,5.95-0.84,8.34-2.29l-2.85-5.6c-1.3,1.18-3.39,1.81-5.48,1.89
	c-0.15,0.01-0.3,0.02-0.45,0.02c-1.31-0.02-3.25-0.64-5.26-1.46l-2.9,5.7c2.15,1.15,4.9,1.76,8.16,1.76"/>
<path class="st1" d="M10.21,18.25c0,7.82,5.44,12.59,13.71,12.59c4.66,0,7.1,1.93,7.11,4.92h6.45c0-2.44-0.87-6.19-6.2-8.11
	c4.12-1.88,6.2-4.93,6.2-9.4c0-2.59-0.71-4.88-2.9-7.47l3.15-3.66l-4.57-3.45l-2.79,3.45c-1.73-1.17-4.47-1.57-6.45-1.57
	C16.91,5.55,10.21,9.81,10.21,18.25"/>
<path class="st2" d="M23.92,25.15c-4.06,0-7.52-2.54-7.52-6.91c0-4.67,3.45-6.96,7.52-6.96c4.06,0,7.36,2.69,7.36,6.96
	C31.29,22.56,27.99,25.15,23.92,25.15z"/>
</svg>
