<svg id="Capa_1" data-name="Capa 1" xmlns="http://www.w3.org/2000/svg" viewBox="0 0 252.32 137.32"><defs><style>.cls-1{fill:#fff;}.cls-2{fill:#d48130;}</style></defs><title>logo-web</title><path class="cls-1" d="M101.75,16.68V81.13H92.47l-.66-5.54C88.72,80.4,83.75,82,78.86,82c-11.81,0-20.69-7.82-20.69-21,0-13.85,8.71-21,20.45-21,4.23,0,10.83,2.28,13.19,6.43V16.68ZM68.11,61c0,7,5,11.81,11.4,11.81A11.38,11.38,0,0,0,91.16,61,11.45,11.45,0,0,0,79.51,49.28C73.16,49.28,68.11,53.76,68.11,61Z" transform="translate(-17.86 -16.68)"/><path class="cls-1" d="M123.35,27.79c0,7.74-11.73,7.74-11.73,0S123.35,20.05,123.35,27.79Zm-10.83,13V81.13h9.94V40.8Z" transform="translate(-17.86 -16.68)"/><path class="cls-1" d="M141.12,64.59c.65,5,5,8.56,12,8.56,3.67,0,8.48-1.39,10.76-3.75l6.35,6.27c-4.23,4.4-11.16,6.52-17.27,6.52-13.85,0-22.08-8.55-22.08-21.43,0-12.22,8.31-21,21.35-21,13.44,0,21.83,8.31,20.28,24.84ZM163,56.37c-.65-5.22-4.72-7.83-10.43-7.83-5.37,0-9.77,2.61-11.24,7.83Z" transform="translate(-17.86 -16.68)"/><path class="cls-1" d="M270.18,61.09c0,11.57-7.9,20.94-20.93,20.94s-20.86-9.37-20.86-20.94,8-20.94,20.78-20.94S270.18,49.6,270.18,61.09Zm-31.85,0c0,6.11,3.66,11.81,10.92,11.81s10.91-5.7,10.91-11.81S255.93,49.2,249.25,49.2C242.08,49.2,238.33,55.06,238.33,61.09Z" transform="translate(-17.86 -16.68)"/><path class="cls-1" d="M61.45,88.16v64.46H52.16l-.65-5.54c-3.1,4.8-8.07,6.43-12.95,6.43-11.82,0-20.7-7.82-20.7-21,0-13.85,8.72-21,20.45-21,4.24,0,10.84,2.29,13.2,6.44V88.16ZM27.8,132.5c0,7,5.05,11.81,11.41,11.81a11.78,11.78,0,0,0,0-23.55C32.85,120.76,27.8,125.24,27.8,132.5Z" transform="translate(-17.86 -16.68)"/><path class="cls-1" d="M83.05,99.28c0,7.74-11.73,7.74-11.73,0S83.05,91.54,83.05,99.28Zm-10.84,13v40.33h9.94V112.29Z" transform="translate(-17.86 -16.68)"/><path class="cls-1" d="M118.17,123.12c-2.86-2.68-6.12-3.58-9.94-3.58-4.73,0-7.34,1.47-7.34,4s2.37,4.08,7.5,4.4c7.58.49,17.19,2.2,17.19,12.87,0,7.09-5.78,13.2-17.27,13.2-6.36,0-12.71-1.06-18.58-7.17l4.89-7.09c3.83,4,9.37,5.54,13.85,5.62,3.75.09,7.25-1.46,7.25-4.39,0-2.77-2.28-4.32-8-4.65-7.58-.57-16.62-3.34-16.62-12.46,0-9.29,9.61-12.55,16.94-12.55,6.28,0,11,1.22,15.64,5.3Z" transform="translate(-17.86 -16.68)"/><path class="cls-1" d="M141.31,136.08c.65,5,5,8.55,12,8.55,3.67,0,8.47-1.38,10.75-3.74l6.35,6.27c-4.23,4.4-11.16,6.52-17.26,6.52-13.85,0-22.08-8.56-22.08-21.43,0-12.22,8.31-21,21.34-21,13.44,0,21.83,8.31,20.29,24.85Zm21.84-8.23c-.66-5.21-4.73-7.82-10.43-7.82-5.38,0-9.78,2.61-11.24,7.82Z" transform="translate(-17.86 -16.68)"/><path class="cls-1" d="M210.57,152.62v-21c0-6.11-3.34-10.76-9.69-10.76-6.11,0-10.27,5.14-10.27,11.25v20.53h-9.86V112.37h8.88l.66,5.46c4.07-4,8.14-6,13.19-6,9.45,0,17,7.09,17,19.71v21.11Z" transform="translate(-17.86 -16.68)"/><path class="cls-1" d="M270.05,132.57c0,11.57-7.9,20.94-20.93,20.94s-20.86-9.37-20.86-20.94,8-20.93,20.78-20.93S270.05,121.09,270.05,132.57Zm-31.85,0c0,6.12,3.66,11.82,10.92,11.82S260,138.69,260,132.57s-4.23-11.89-10.91-11.89C242,120.68,238.2,126.55,238.2,132.57Z" transform="translate(-17.86 -16.68)"/><path class="cls-2" d="M209.55,92.4c-2.08,1.89-5.44,2.91-8.8,3-.24,0-.48,0-.72,0-2.1,0-5.21-1-8.43-2.35l-4.66,9.14A27.81,27.81,0,0,0,200,105.08l.72,0a27.3,27.3,0,0,0,13.37-3.67Z" transform="translate(-17.86 -16.68)"/><path class="cls-1" d="M212,75.1c6.61-3,9.94-7.9,9.94-15.07,0-4.15-1.14-7.82-4.64-12l5-5.87L215,36.65l-4.48,5.54c-2.77-1.87-7.17-2.52-10.35-2.52-11.24,0-22,6.84-22,20.36,0,12.55,8.71,20.2,22,20.2,7.49,0,11.39,3.09,11.4,7.89h10.35C221.94,84.21,220.55,78.19,212,75.1Zm-11.81-4c-6.51,0-12.05-4.07-12.05-11.08,0-7.49,5.54-11.16,12.05-11.16S212,53.19,212,60,206.71,71.11,200.19,71.11Z" transform="translate(-17.86 -16.68)"/></svg>